<?xml version="1.0" encoding="iso-8859-1"?>
<!-- Generator: Adobe Illustrator 17.1.0, SVG Export Plug-In . SVG Version: 6.00 Build 0)  -->
<!DOCTYPE svg PUBLIC "-//W3C//DTD SVG 1.1//EN" "http://www.w3.org/Graphics/SVG/1.1/DTD/svg11.dtd">
<svg version="1.1" id="Capa_1" xmlns="http://www.w3.org/2000/svg" xmlns:xlink="http://www.w3.org/1999/xlink" x="0px" y="0px"
	 viewBox="0 0 140.637 140.637" style="enable-background:new 0 0 140.637 140.637;" xml:space="preserve">
<path style="fill:#000002;" d="M138.137,140.614H2.5c-1.381,0-2.5-1.119-2.5-2.5V2.523c0-1.381,1.119-2.5,2.5-2.5h135.637
	c1.381,0,2.5,1.119,2.5,2.5v135.591C140.637,139.495,139.518,140.614,138.137,140.614z M87.5,135.614h48.091v-17.599H87.5V135.614z
	 M34.362,135.614H82.5v-17.599H34.362V135.614z M5,135.614h24.362v-17.599H5V135.614z M111.273,113.015h24.317V95.417h-24.317
	V113.015z M85,113.015h21.273V95.417H58.137v17.599H85z M31.862,113.015h21.274V95.417H5v17.599H31.862z M108.773,90.417h26.817
	V72.818H87.5v17.598H108.773z M55.637,90.417H82.5V72.818H34.362v17.598H55.637z M5,90.417h24.362V72.818H5V90.417z M111.273,67.818
	h24.317V50.22h-24.317V67.818z M85,67.818h21.273V50.22H58.137v17.599H85z M31.862,67.818h21.274V50.22H5v17.599H31.862z
	 M108.773,45.22h26.817V27.621H87.5V45.22H108.773z M55.637,45.22H82.5V27.621H34.362V45.22H55.637z M5,45.22h24.362V27.621H5V45.22
	z M111.273,22.621h24.317V5.023h-24.317V22.621z M85,22.621h21.273V5.023H58.137v17.598H85z M31.862,22.621h21.274V5.023H5v17.598
	H31.862z"/>
<g>
</g>
<g>
</g>
<g>
</g>
<g>
</g>
<g>
</g>
<g>
</g>
<g>
</g>
<g>
</g>
<g>
</g>
<g>
</g>
<g>
</g>
<g>
</g>
<g>
</g>
<g>
</g>
<g>
</g>
</svg>
