<?xml version="1.0" encoding="utf-8"?>
<!-- Generator: Adobe Illustrator 19.0.0, SVG Export Plug-In . SVG Version: 6.00 Build 0)  -->
<svg version="1.1" id="Capa_1" xmlns="http://www.w3.org/2000/svg" xmlns:xlink="http://www.w3.org/1999/xlink" x="0px" y="0px"
	 viewBox="-206 298.7 197.3 197.3" style="enable-background:new -206 298.7 197.3 197.3;" xml:space="preserve">
<style type="text/css">
	.st0{fill:#FFFFFF;}
</style>
<g>
	<g>
		<g>
			<path class="st0" d="M-19.4,326.7h-175.8c-5.9,0-10.8,4.8-10.8,10.8v119.9c0,5.9,4.8,10.7,10.8,10.7h175.8
				c5.9,0,10.7-4.8,10.7-10.7V337.4C-8.7,331.5-13.5,326.7-19.4,326.7z M-195.2,332.5h175.8c2.7,0,4.9,2.2,4.9,4.9v22.5h-185.6
				v-22.5C-200.1,334.7-197.9,332.5-195.2,332.5z M-19.4,462.1h-175.8c-2.7,0-4.9-2.2-4.9-4.9v-79.8h185.6v79.8
				C-14.5,460-16.7,462.1-19.4,462.1z"/>
		</g>
		<g>
			<rect x="-93.2" y="419.5" class="st0" width="58.6" height="15.6"/>
		</g>
	</g>
</g>
</svg>
