<?xml version="1.0" encoding="utf-8"?>
<!-- Generator: Adobe Illustrator 19.0.0, SVG Export Plug-In . SVG Version: 6.00 Build 0)  -->
<svg version="1.1" id="Capa_1" xmlns="http://www.w3.org/2000/svg" xmlns:xlink="http://www.w3.org/1999/xlink" x="0px" y="0px"
	 viewBox="0 91 612 612" style="enable-background:new 0 91 612 612;" xml:space="preserve">
<style type="text/css">
	.st0{fill:#FFFFFF;}
</style>
<g>
	<g>
		<path class="st0" d="M511.1,391.3c-9.9,0-17.6,7.7-17.6,17.7V650H368.4v-98.5c0-9.2-7.7-17.3-17-17.3H261c-9.9,0-18,8.1-18,17.3
			V650H118.2V416.9c0-9.3-7.7-17-17.6-17c-9.3,0-17,7.7-17,17v250.8c0,9.3,7.7,17,17,17H261c9.3,0,17-7.7,17-17v-98.5h55.8v98.5
			c0,9.3,7.7,17,17.6,17h159.7c9.3,0,17-7.7,17-17V408.9C528.1,398.9,520.4,391.3,511.1,391.3z"/>
		<path class="st0" d="M607,405L467.8,265.2v-95.3c0-9.9-8-17.6-18-17.6c-9.3,0-17,7.7-17,17.6v60.3L318,114.8
			c-3.5-3.6-7.7-5.5-11.9-5.5c-4.8,0-9,2-12.5,5.5L5.4,403.1c-6.9,6.9-7.4,18,0,24.4c6.4,7.4,17.5,6.9,24.4,0l276.5-275.8L582,430
			c2.9,2.9,7.1,4.5,12.5,4.5c4.8,0,9-1.6,12.5-4.5C613.4,423.6,613.9,412,607,405z"/>
	</g>
</g>
</svg>
