<?xml version="1.0" encoding="utf-8"?>
<!-- Generator: Adobe Illustrator 19.0.0, SVG Export Plug-In . SVG Version: 6.00 Build 0)  -->
<svg version="1.1" id="Capa_1" xmlns="http://www.w3.org/2000/svg" xmlns:xlink="http://www.w3.org/1999/xlink" x="0px" y="0px"
	 viewBox="-57 148.7 496.3 496.3" style="enable-background:new -57 148.7 496.3 496.3;" xml:space="preserve">
<style type="text/css">
	.st0{fill:#FFFFFF;}
</style>
<g>
	<g>
		<path class="st0" d="M432.5,333.8c-6.7-5.1-15-5.3-23.1-4c-0.5,0.1-1,0.2-1.4,0.3c-3.6-2.5-7.1-5.2-10.6-7.7
			c0.7-7.5,1.4-14.9,2.2-22.4c0.1-1.3,0-2.5-0.2-3.7c0-2.2-0.8-4.4-2.8-6.4c-11.2-10.9-22.8-21.2-34.6-31.4
			c-0.4-1.2-1.1-2.3-2.2-3.4l-67.3-66.9c-1.8-3.6-5.7-6.2-10.7-4.7c-24.1,7.1-42.6,23.3-54.5,45.3c-0.1,0.1-0.1,0.3-0.2,0.4
			c-2.1,2.7-2.8,6.5-0.6,10.2c8.3,14,16.9,28.6,26.4,42.4c-25.2,20.7-51.5,40.3-78,59.7c4.7,4,9,8.2,13.2,12.5
			c25.6-18.7,51-37.7,75.3-57.7c4.8,6.2,9.9,12.2,15.3,17.7c-20.8,22.5-41.3,45.3-61.9,68.1c4.5,3.6,9.4,7.1,14.8,10.2
			c20.1-22.2,40.1-44.4,60.3-66.3c17.9,14.6,39.1,24.3,65.1,25.1c3.6,4.9,7.3,9.7,10.9,14.5c-2.2,4.1-3.7,8.5-3.4,13.2
			c0.5,6.8,3.8,12,8.7,16.5c1,0.9,2.1,1.6,3.2,1.9c2,1.3,4.4,1.8,7.3,1.1c16.7-4.2,32.3-13.9,43.9-26.5
			C436.4,362.4,446.2,344.3,432.5,333.8z M383.4,379.9c-1.7-3-0.1-5.8,2.3-9.2c2.8-4,3.1-9.2-0.9-12.6c-0.2-0.2-0.4-0.3-0.6-0.5
			c-4.6-6.5-9.7-12.6-14.2-19.1c-2.5-3.5-7.6-4.6-12.6-5.1c-3.1-0.3-6.2-0.4-8.6-0.7c-8.2-1.2-16.4-2.8-24-6.1
			c-18.2-7.9-34.3-23.4-46.3-39c-6.5-8.4-12.3-17.4-18-26.4c-2.8-4.4-5.6-8.9-8.3-13.4c-0.9-1.5-8.2-11.9-7.6-13
			c8.7-15,21.1-26,37-32.2c3.7,3.6,7.3,7.3,11,10.9c14,13.9,27.9,27.9,42.1,41.7c8,7.8,16.1,15.6,24.2,23.4c4.2,4,8.4,8,12.6,12.1
			c1.2,1.1,10.5,8.5,10.3,9.8l-2.2,23c-0.1,0.6,0.1,1.1,0.1,1.7c-0.7,3.8,1.5,7.3,4.8,9.6c6.5,4.3,12.4,9.3,18.9,13.6
			c5.7,3.7,11.7-4.1,17.7-0.7C422,357.3,385.6,383.8,383.4,379.9z"/>
		<path class="st0" d="M141.4,478.6c-2.2-3-5-5.8-7.9-8c-5.8,5.8-11.6,11.5-17.5,17.1c0,0,0-0.1-0.1-0.1
			c-9.7-18.4-22.6-34.3-37.9-48.2c-0.5-0.6-0.9-1.3-1.4-1.9c0-0.1-0.1-0.1-0.1-0.1c7.6-6.1,15.2-12,22.9-18
			c-3.4-4.9-6.6-9.9-9.7-15.1C44.5,438.9,1.4,475.6-35.4,519.2c-0.7,0.9-1.2,1.8-1.6,2.7c-1.2,1.9-1.4,4.3-0.1,7.1
			c11.9,24.1,30.1,44,54.8,55.3c1.7,0.8,3.4,1,4.9,0.8c1.9,0.3,4-0.1,6-1.5c41.8-29.3,79.7-63,115.7-98.7c-0.2-0.3-0.4-0.6-0.5-0.9
			C143.1,482.2,142.2,480.4,141.4,478.6z M22,566.4c-17.2-8.9-30.9-22.7-40.2-39.7C6.2,498.4,33.4,473,62,449.2
			c1.2,1,2.3,2.2,3.4,3.2c12.4,16.2,24,33,33.2,51.3c0,0,0.1,0.1,0.1,0.1C74.4,526.1,49.1,547.2,22,566.4z"/>
		<path class="st0" d="M300.2,479c-23.9-24.5-50.3-46.9-76-69.9c-1.4-1.3-2.8-2.5-4.2-3.8c-4.4-4-8.8-8-13.2-12
			c-10.6-9.8-21-19.8-31-30.2c-4.1-4.3-8.2-8.5-12.1-12.9c-0.1-0.1-0.2-0.1-0.2-0.2c-0.4-0.5-0.9-0.8-1.4-1.2
			c-6-6-11.8-12-17.2-17.8c-0.9-1-1.8-2-2.7-3c-8.7-9.5-17.3-19.5-25.7-29.9c-4.6-5.8-9.3-11.8-13.8-17.9c-0.4-0.5-1.3-1.6-2.4-3
			c-1.6-2-5.9-7.2-8-10.1c7.5-26.2,1.9-50.3-15.5-66.2c-18.3-16.7-44.4-24.1-73.9-21c-5.7,0.6-9.8,4.6-10.6,10.2
			c-0.8,5.3,1.7,10.7,5.8,13.8c1.6,2.1,3.7,3.7,6.3,4.6c12.1,4.1,24.7,9.7,27,20.3c1.6,7.6-7,15-9.6,17.1
			c-6.8,5.3-16.8,7.5-25.1,5.4c-13.1-3.3-20.5-17.2-23.9-26c-0.2-3-1.4-5.8-3.5-8c-2.6-2.8-6.3-4.5-10-4.5c-5.6,0-10.3,3.6-11.9,9.2
			l-0.2,0.6c-0.1,0.4-0.2,0.7-0.2,0.8c-8.3,30.6-3.4,58.5,13.7,78.5c10.6,12.4,25.3,18.9,42.4,18.9c8.3,0,17.1-1.6,25.7-4.5
			c12.8,14.6,26.3,28.4,39.4,41.9l8.8,9c2.6,2.7,5.1,5.5,7.6,8.2c5.7,6.5,11.3,13.2,16.9,20.1c0.5,0.6,0.9,1.1,1.4,1.7l5.9,7.2
			c0.5,0.6,1.2,1.2,1.8,1.7c0.8,1,1.7,2.1,2.5,3.1c12.1,15,23.6,30.8,35,46.7c3.5,4.9,7.1,9.9,10.6,14.8c5.6,7.9,11.3,15.7,17,23.5
			c36.4,49.6,76.1,95.9,135.2,119.8c2.5,1,4.8,0.7,6.6-0.3c1.2-0.1,2.5-0.7,3.7-1.8c20.3-18,39.3-45.4,25.5-73.1
			C335.3,516.1,317.8,497,300.2,479z M79.3,347.2c-14.2-14.6-28.8-29.6-42.3-45.4l-3.7-4.3l-5.2,2.2c-8.4,3.5-17.1,5.4-25.1,5.4
			c-12.6,0-22.9-4.5-30.6-13.5c-15.4-18-15.2-40.5-12.3-56c7.5,16.5,18.9,27.3,32.6,30.7c12.9,3.2,28.1-0.1,38.6-8.3
			c12.1-9.6,17.7-21.5,15.2-32.7c-4-18.5-22.9-26.7-33.9-30.5c22-0.7,40,5.3,53.5,17.6c19,17.4,13.5,42.8,10.3,52.9
			c-1.6,5,0.8,8.6,11.7,21.9c0.9,1.1,1.7,2,2,2.4c4.7,6.2,9.4,12.4,14.1,18.3c7.5,9.4,15.2,18.3,23,27c2,2.3,4.1,4.6,6.1,6.8
			c5,5.3,10.3,10.8,15.8,16.4c-0.7,1.3-1.8,2.9-3.1,4.6c-7,9.4-20.9,23.8-27.9,28.4c-0.4-0.4-0.8-0.8-1.2-1.1l-2.1-2.5
			c-0.3-0.4-0.6-0.8-1-1.2c-4.8-5.9-9.7-11.8-14.8-17.7c-3.6-4.1-7.2-8.2-11.1-12.2L79.3,347.2z M313.3,598
			c-52.4-22.6-88.8-63.8-121.9-108.4c-7.4-10-14.6-20.1-21.8-30.2c-3.5-4.9-7-9.9-10.5-14.8c-10.1-14.2-20.4-28.3-31.1-41.7
			c7.5-5.2,16-13.6,23-21.7c3.7-4.3,6.9-8.4,9.3-11.9c1,1,1.9,2.1,2.9,3.1c10.7,11.1,22,21.7,33.5,32.1c4.4,4,8.9,8,13.3,11.9
			c5.2,4.6,10.4,9.2,15.7,13.8c11.4,10.1,22.8,20.2,33.8,30.6c20.1,19.1,40.8,38.6,57.7,60.7C338,548.9,342.3,571.8,313.3,598z"/>
	</g>
</g>
</svg>
