<?xml version="1.0" encoding="utf-8"?>
<!-- Generator: Adobe Illustrator 19.0.0, SVG Export Plug-In . SVG Version: 6.00 Build 0)  -->
<svg version="1.1" id="Capa_1" xmlns="http://www.w3.org/2000/svg" xmlns:xlink="http://www.w3.org/1999/xlink" x="0px" y="0px"
	 viewBox="-261 353.4 87.6 87.6" style="enable-background:new -261 353.4 87.6 87.6;" xml:space="preserve">
<g>
	<g id="Paint">
		<g>
			<path d="M-173.4,363.6c0-2.7-1.1-5.3-3-7.2c-1.9-1.9-4.5-3-7.2-3c-2.7,0-5.2,1-7.2,2.9l-26.4,23.6l-7-7.1c-1-1-2.7-1.3-4-0.6
				l-12.6,6.7c-0.9,0.5-1.6,1.4-1.8,2.5c-0.2,1.1,0.2,2.1,1,2.9l1.4,1.4l-20.1,14.9c-0.4,0.3-0.6,0.7-0.7,1.2c0,0.5,0.1,1,0.5,1.3
				l7.1,7.1c0.5,0.5,1.3,0.6,1.9,0.3l3.3-1.6l-1.4,3.6c-0.2,0.6-0.1,1.3,0.4,1.8l9.9,9.9c0.6,0.6,1.4,0.7,2.1,0.3l5.6-3.4l-3.4,5.7
				c-0.4,0.7-0.3,1.5,0.3,2.1l4.1,4.1c0.6,0.6,1.4,0.7,2.1,0.2l1.1-0.7l-0.7,1.4c-0.3,0.6-0.2,1.4,0.3,1.9l4.5,4.5
				c0.3,0.3,0.7,0.5,1.2,0.5c0,0,0.1,0,0.1,0c0.5,0,0.9-0.3,1.2-0.7l14.9-20.1l1.4,1.4c0.6,0.6,1.5,1,2.4,1c0.2,0,0.3,0,0.5,0
				c1.1-0.2,2-0.8,2.5-1.8l6.7-12.6c0.7-1.3,0.4-2.9-0.6-4l-7-7l23.6-26.4C-174.4,368.9-173.4,366.3-173.4,363.6z M-222.2,436.7
				l-2.3-2.3l2.8-5.7c0.3-0.7,0.2-1.5-0.4-2c-0.6-0.5-1.4-0.6-2-0.2l-5,3.2l-2.2-2.2l6.1-10.4c0.4-0.7,0.3-1.5-0.3-2.1
				c-0.6-0.5-1.4-0.6-2.1-0.2l-10.3,6.2l-8.2-8.2l2.5-6.5c0.2-0.6,0.1-1.4-0.4-1.8c-0.5-0.5-1.2-0.6-1.9-0.3l-6,2.8l-4.9-4.9
				l18.9-14l29.7,29.7L-222.2,436.7z M-202.8,413.6l-30.8-30.8l6.3-3.3l27.8,27.8L-202.8,413.6z M-181.2,366.1c0,0-0.1,0.1-0.1,0.1
				l-23.4,26.2l-7.7-7.7l26.2-23.4c0,0,0.1-0.1,0.1-0.1c1.3-1.3,3.6-1.3,4.9,0c0.7,0.7,1,1.5,1,2.4
				C-180.2,364.5-180.5,365.4-181.2,366.1z"/>
		</g>
	</g>
</g>
</svg>
