<?xml version="1.0" encoding="utf-8"?>
<!-- Generator: Adobe Illustrator 19.0.0, SVG Export Plug-In . SVG Version: 6.00 Build 0)  -->
<svg version="1.1" id="Capa_1" xmlns="http://www.w3.org/2000/svg" xmlns:xlink="http://www.w3.org/1999/xlink" x="0px" y="0px"
	 viewBox="-93 185 424 424" style="enable-background:new -93 185 424 424;" xml:space="preserve">
<style type="text/css">
	.st0{fill:#FFFFFF;}
</style>
<g>
	<path class="st0" d="M321,405.4h-14V260.2c0-25.2-6.1-44.4-18.3-57c-10.8-11.3-25.7-17-44.4-17c-33.2,0-60.4,26.3-62,59.3
		c-18.8,3.3-34.4,16.1-40.3,33.9c-2.2,6.5-1.5,12.9,1.9,17.7c2.4,3.4,7.3,7.4,16.6,7.4h65.9c8,0,12.2-4.1,14-6.6
		c4.8-6.7,2.9-15,1.8-18.3c-5.8-17.7-21.2-30.5-39.9-34c1.5-22,19.7-39.4,41.9-39.4c28.7,0,42.6,17.7,42.6,54v145.2H-83
		c-5.5,0-10,4.5-10,10s4.5,10,10,10h12v72.2c0,31,22.5,56.9,52.1,62.6c-2.2,4.4-3.5,9.4-3.5,14.7c0,18.1,14.7,32.8,32.8,32.8
		c18.1,0,32.8-14.7,32.8-32.8c0-4.8-1.1-9.4-2.9-13.6h156.5c-1.9,4.1-2.9,8.7-2.9,13.6c0,18.1,14.7,32.8,32.8,32.8
		c18.1,0,32.8-14.7,32.8-32.8c0-5.3-1.3-10.3-3.5-14.8c29.1-5.8,51.2-31.6,51.2-62.6v-70.2v-2h14c5.5,0,10-4.5,10-10
		S326.5,405.4,321,405.4z M222.8,284.4h-61.3c4.6-11.9,16.7-19.8,30.6-19.8C205.9,264.6,218.2,272.7,222.8,284.4z M10.4,587.8
		c-7.1,0-12.8-5.7-12.8-12.8c0-7.1,5.7-12.8,12.8-12.8c7.1,0,12.8,5.7,12.8,12.8C23.2,582.1,17.4,587.8,10.4,587.8z M226.6,587.8
		c-7.1,0-12.8-5.7-12.8-12.8c0-7.1,5.7-12.8,12.8-12.8c7.1,0,12.8,5.7,12.8,12.8C239.4,582.1,233.6,587.8,226.6,587.8z M287,427.4
		v70.2c0,24.1-19.5,43.8-43.5,43.8H-6.7c-24.4,0-44.3-19.6-44.3-43.8v-72.2h338V427.4z"/>
	<path class="st0" d="M190.5,338.9c5.2,0,9.5-4.3,9.5-9.5v-4c0-5.2-4.3-9.5-9.5-9.5s-9.5,4.3-9.5,9.5v4
		C181,334.7,185.3,338.9,190.5,338.9z"/>
	<path class="st0" d="M181,357.4c0,5.2,4.3,9.5,9.5,9.5s9.5-4.3,9.5-9.5v-4c0-5.2-4.3-9.5-9.5-9.5s-9.5,4.3-9.5,9.5V357.4z"/>
	<path class="st0" d="M181,387.4c0,5.2,4.3,9.5,9.5,9.5s9.5-4.3,9.5-9.5v-5c0-5.2-4.3-9.5-9.5-9.5s-9.5,4.3-9.5,9.5V387.4z"/>
	<path class="st0" d="M160,339.8c1.1,0.4,2.2,0.6,3.2,0.6c3.9,0,7.5-2.4,8.9-6.3l1.2-3.3c1.8-4.9-0.8-10.4-5.7-12.2
		c-4.9-1.8-10.4,0.8-12.2,5.7l-1.2,3.3C152.5,332.6,155.1,338,160,339.8z"/>
	<path class="st0" d="M145.9,350.8l-1.2,3.3c-1.8,4.9,0.8,10.4,5.7,12.2c1.1,0.4,2.2,0.6,3.2,0.6c3.9,0,7.5-2.4,8.9-6.3l1.2-3.3
		c1.8-4.9-0.8-10.4-5.7-12.2C153.2,343.3,147.7,345.9,145.9,350.8z"/>
	<path class="st0" d="M140.4,393.8c1.1,0.4,2.2,0.6,3.2,0.6c3.9,0,7.5-2.4,8.9-6.3l1.2-3.3c1.8-4.9-0.8-10.4-5.7-12.2
		c-4.9-1.8-10.4,0.8-12.2,5.7l-1.2,3.3C133,386.6,135.5,392,140.4,393.8z"/>
	<path class="st0" d="M227.6,324.4c-1.8-4.9-7.2-7.5-12.2-5.7c-4.9,1.8-7.5,7.2-5.7,12.2l1.2,3.3c1.4,3.9,5,6.3,8.9,6.3
		c1.1,0,2.2-0.2,3.2-0.6c4.9-1.8,7.5-7.2,5.7-12.2L227.6,324.4z"/>
	<path class="st0" d="M237.2,350.8c-1.8-4.9-7.2-7.5-12.2-5.7c-4.9,1.8-7.5,7.2-5.7,12.2l1.2,3.3c1.4,3.9,5,6.3,8.9,6.3
		c1.1,0,2.2-0.2,3.2-0.6c4.9-1.8,7.5-7.2,5.7-12.2L237.2,350.8z"/>
	<path class="st0" d="M229.3,384.8l1.2,3.3c1.4,3.9,5,6.3,8.9,6.3c1.1,0,2.2-0.2,3.2-0.6c4.9-1.8,7.5-7.2,5.7-12.2l-1.2-3.3
		c-1.8-4.9-7.2-7.5-12.2-5.7C230.1,374.4,227.5,379.9,229.3,384.8z"/>
</g>
</svg>
