<?xml version="1.0" encoding="utf-8"?>
<!-- Generator: Adobe Illustrator 19.0.0, SVG Export Plug-In . SVG Version: 6.00 Build 0)  -->
<svg version="1.1" id="Capa_1" xmlns="http://www.w3.org/2000/svg" xmlns:xlink="http://www.w3.org/1999/xlink" x="0px" y="0px"
	 viewBox="-223 314 165 165" style="enable-background:new -223 314 165 165;" xml:space="preserve">
<style type="text/css">
	.st0{fill:#FFFFFF;}
</style>
<path class="st0" d="M-69.3,417.6c-7.9-6.6-16.1-8-23.4-9.2c-4.8-0.8-8.7-1.5-12.2-3.5c19.3-4.2,33.8-14.2,41.2-28.6
	c7.1-13.8,6.6-30.3-1.3-45.3c-4.8-9.1-15.3-15.7-26.7-16.9c-10.9-1.1-21.1,2.9-27.9,11.1c-6.6,7.9-8,16.1-9.2,23.4
	c-0.8,4.8-1.5,8.7-3.4,12.1c-4.2-19.3-14.2-33.8-28.6-41.3c-13.8-7.1-30.3-6.6-45.3,1.3c-9.1,4.8-15.7,15.3-16.9,26.7
	c-1.1,10.9,2.9,21.1,11.1,27.9c7.9,6.6,16.1,8,23.4,9.2c4.8,0.8,8.7,1.5,12.2,3.5c-19.3,4.2-33.8,14.2-41.2,28.6
	c-7.1,13.8-6.6,30.3,1.3,45.3c4.8,9.1,15.3,15.7,26.7,16.9c1.2,0.1,2.4,0.2,3.6,0.2c9.5,0,18.3-4,24.3-11.3c6.6-7.9,8-16.1,9.2-23.4
	c0.8-4.8,1.5-8.7,3.4-12.1c4.2,19.3,14.2,33.8,28.6,41.3c6.5,3.4,13.6,5,20.8,5c8.2,0,16.5-2.1,24.4-6.3
	c9.1-4.8,15.7-15.3,16.9-26.7C-57.1,434.6-61.1,424.4-69.3,417.6z M-140.5,415.2c-10.3,0-18.7-8.4-18.7-18.7
	c0-10.3,8.4-18.7,18.7-18.7s18.7,8.4,18.7,18.7C-121.9,406.8-130.2,415.2-140.5,415.2z M-113.9,351.2c1-6.1,1.9-11.4,5.9-16.3
	c4.9-5.8,11.4-6.1,14.8-5.8c6.3,0.7,12.5,4.4,14.9,9c5.7,10.7,6.1,21.9,1.2,31.4c-5.3,10.2-16,17.4-30.5,20.7
	c-1.6-8.2-6.2-15.4-12.6-20.4C-116,363.5-114.8,356.9-113.9,351.2z M-202.1,363.9c-5.8-4.9-6.1-11.4-5.8-14.8
	c0.7-6.3,4.4-12.5,9-14.9c10.7-5.7,21.9-6.1,31.4-1.2c10.2,5.3,17.4,16,20.7,30.6c-8.2,1.6-15.4,6.1-20.3,12.5
	c-6.3-4.1-13-5.2-18.7-6.2C-192,368.8-197.3,367.9-202.1,363.9z M-167.2,441.8c-1,6.1-1.9,11.4-5.9,16.3c-4.9,5.8-11.4,6.1-14.8,5.8
	c-6.3-0.7-12.5-4.4-14.9-9c-5.7-10.7-6.1-21.9-1.2-31.4c5.3-10.2,16-17.4,30.5-20.7c1.6,8.2,6.2,15.4,12.6,20.4
	C-165.1,429.5-166.2,436.2-167.2,441.8z M-73.1,444c-0.7,6.3-4.4,12.5-9,14.9c-10.7,5.7-21.9,6.1-31.4,1.2
	c-10.2-5.3-17.4-16-20.7-30.6c8.2-1.6,15.4-6.1,20.3-12.5c6.3,4.1,13,5.2,18.7,6.2c6.1,1,11.4,1.9,16.3,5.9
	C-73.1,434-72.8,440.5-73.1,444z"/>
</svg>
