<?xml version="1.0" encoding="utf-8"?>
<!-- Generator: Adobe Illustrator 19.0.0, SVG Export Plug-In . SVG Version: 6.00 Build 0)  -->
<svg version="1.1" id="Capa_1" xmlns="http://www.w3.org/2000/svg" xmlns:xlink="http://www.w3.org/1999/xlink" x="0px" y="0px"
	 viewBox="-235 326.4 140.6 140.6" style="enable-background:new -235 326.4 140.6 140.6;" xml:space="preserve">
<path d="M-96.9,467h-135.6c-1.4,0-2.5-1.1-2.5-2.5V328.9c0-1.4,1.1-2.5,2.5-2.5h135.6c1.4,0,2.5,1.1,2.5,2.5v135.6
	C-94.4,465.9-95.5,467-96.9,467z M-147.5,462h48.1v-17.6h-48.1V462z M-200.6,462h48.1v-17.6h-48.1V462z M-230,462h24.4v-17.6H-230
	V462z M-123.7,439.4h24.3v-17.6h-24.3V439.4z M-150,439.4h21.3v-17.6h-48.1v17.6H-150L-150,439.4z M-203.1,439.4h21.3v-17.6H-230
	v17.6H-203.1L-203.1,439.4z M-126.2,416.8h26.8v-17.6h-48.1v17.6H-126.2L-126.2,416.8z M-179.4,416.8h26.9v-17.6h-48.1v17.6H-179.4
	L-179.4,416.8z M-230,416.8h24.4v-17.6H-230V416.8z M-123.7,394.2h24.3v-17.6h-24.3V394.2z M-150,394.2h21.3v-17.6h-48.1v17.6H-150
	L-150,394.2z M-203.1,394.2h21.3v-17.6H-230v17.6H-203.1L-203.1,394.2z M-126.2,371.6h26.8V354h-48.1v17.6H-126.2z M-179.4,371.6
	h26.9V354h-48.1v17.6H-179.4z M-230,371.6h24.4V354H-230V371.6z M-123.7,349h24.3v-17.6h-24.3V349z M-150,349h21.3v-17.6h-48.1V349
	C-176.9,349-150,349-150,349z M-203.1,349h21.3v-17.6H-230V349H-203.1z"/>
</svg>
